<mxfile host="app.diagrams.net" modified="2023-05-03T13:25:33.249Z" agent="Mozilla/5.0 (Windows NT 10.0; Win64; x64) AppleWebKit/537.36 (KHTML, like Gecko) Chrome/112.0.0.0 Safari/537.36" etag="Gx11SqWjJvmt-vjDLuo9" version="21.2.7" type="github">
  <diagram id="C5RBs43oDa-KdzZeNtuy" name="Page-1">
    <mxGraphModel dx="1877" dy="573" grid="1" gridSize="10" guides="1" tooltips="1" connect="1" arrows="1" fold="1" page="1" pageScale="1" pageWidth="827" pageHeight="1169" math="0" shadow="0">
      <root>
        <mxCell id="WIyWlLk6GJQsqaUBKTNV-0" />
        <mxCell id="WIyWlLk6GJQsqaUBKTNV-1" parent="WIyWlLk6GJQsqaUBKTNV-0" />
        <mxCell id="f7pmLtXpyvA_xlSWCejs-0" value="Users&lt;br&gt;username : String&lt;br&gt;password: String&lt;br&gt;newsFeed: List&amp;lt;Post&amp;gt;:&lt;br&gt;sessions: Map&amp;lt;User, Session&amp;gt;&lt;br&gt;following: List&amp;lt;User&amp;gt;" style="rounded=0;whiteSpace=wrap;html=1;" vertex="1" parent="WIyWlLk6GJQsqaUBKTNV-1">
          <mxGeometry x="220" y="75" width="230" height="140" as="geometry" />
        </mxCell>
        <mxCell id="f7pmLtXpyvA_xlSWCejs-2" value="Posts&lt;br&gt;&lt;span style=&quot;background-color: initial;&quot;&gt;id: int&lt;br&gt;&lt;/span&gt;&lt;span style=&quot;background-color: initial;&quot;&gt;text: String&amp;nbsp; &amp;nbsp; &amp;nbsp; &amp;nbsp;&lt;br&gt;&lt;/span&gt;&lt;span style=&quot;background-color: initial;&quot;&gt;author: User&lt;br&gt;&lt;/span&gt;&lt;span style=&quot;background-color: initial;&quot;&gt;timestamp: long&lt;br&gt;&lt;/span&gt;&lt;span style=&quot;background-color: initial;&quot;&gt;comments: List&lt;br&gt;&lt;/span&gt;&lt;span style=&quot;background-color: initial;&quot;&gt;upvotes: int&lt;br&gt;&lt;/span&gt;&lt;span style=&quot;background-color: initial;&quot;&gt;downvotes: int&lt;/span&gt;&lt;span style=&quot;background-color: initial;&quot;&gt;&lt;br&gt;&lt;/span&gt;" style="rounded=0;whiteSpace=wrap;html=1;" vertex="1" parent="WIyWlLk6GJQsqaUBKTNV-1">
          <mxGeometry x="-40" y="230" width="225" height="150" as="geometry" />
        </mxCell>
        <mxCell id="f7pmLtXpyvA_xlSWCejs-3" value="Comments&lt;br&gt;&lt;span style=&quot;background-color: initial;&quot;&gt;id: int&lt;br&gt;&lt;/span&gt;&lt;span style=&quot;background-color: initial;&quot;&gt;text: String&lt;br&gt;&lt;/span&gt;&lt;span style=&quot;background-color: initial;&quot;&gt;author: User&lt;br&gt;&lt;/span&gt;&lt;span style=&quot;background-color: initial;&quot;&gt;timestamp: long&lt;br&gt;&lt;/span&gt;&lt;span style=&quot;background-color: initial;&quot;&gt;comments: List&amp;lt;Comment&amp;gt;&lt;br&gt;&lt;/span&gt;&lt;span style=&quot;background-color: initial;&quot;&gt;upvotes: int&lt;br&gt;&lt;/span&gt;&lt;span style=&quot;background-color: initial;&quot;&gt;downvotes: int&lt;/span&gt;&lt;span style=&quot;background-color: initial;&quot;&gt;&lt;br&gt;&lt;/span&gt;" style="rounded=0;whiteSpace=wrap;html=1;" vertex="1" parent="WIyWlLk6GJQsqaUBKTNV-1">
          <mxGeometry x="232.5" y="300" width="205" height="150" as="geometry" />
        </mxCell>
        <mxCell id="f7pmLtXpyvA_xlSWCejs-4" value="Sessions&lt;br&gt;&lt;div&gt;user: User&lt;/div&gt;&lt;div&gt;&lt;span style=&quot;background-color: initial;&quot;&gt;lastActive: long&lt;/span&gt;&lt;/div&gt;" style="rounded=0;whiteSpace=wrap;html=1;" vertex="1" parent="WIyWlLk6GJQsqaUBKTNV-1">
          <mxGeometry x="2.5" y="450" width="152.5" height="130" as="geometry" />
        </mxCell>
        <mxCell id="f7pmLtXpyvA_xlSWCejs-5" value="FeedItems&lt;br&gt;id: int&lt;br&gt;text: string&lt;br&gt;created_at: datetime&lt;br&gt;author: User&lt;br&gt;upvotes: list of User&lt;br&gt;downvotes: list of User&lt;br&gt;comments: list of Comment&lt;br&gt;" style="rounded=0;whiteSpace=wrap;html=1;" vertex="1" parent="WIyWlLk6GJQsqaUBKTNV-1">
          <mxGeometry x="570" y="80" width="200" height="130" as="geometry" />
        </mxCell>
        <mxCell id="f7pmLtXpyvA_xlSWCejs-6" value="UserFollowers&lt;br&gt;follower: User&lt;br&gt;followee: User" style="rounded=0;whiteSpace=wrap;html=1;" vertex="1" parent="WIyWlLk6GJQsqaUBKTNV-1">
          <mxGeometry y="80" width="160" height="100" as="geometry" />
        </mxCell>
        <mxCell id="f7pmLtXpyvA_xlSWCejs-7" value="FeedItemVotes&lt;br&gt;voter: User&lt;br&gt;feed_item: FeedItem&lt;br&gt;is_upvote: bool" style="rounded=0;whiteSpace=wrap;html=1;" vertex="1" parent="WIyWlLk6GJQsqaUBKTNV-1">
          <mxGeometry x="677" y="280" width="150" height="90" as="geometry" />
        </mxCell>
        <mxCell id="f7pmLtXpyvA_xlSWCejs-8" value="CommentVotes&lt;br&gt;voter: User&lt;br&gt;comment: Comment&lt;br&gt;is_upvote: bool" style="rounded=0;whiteSpace=wrap;html=1;" vertex="1" parent="WIyWlLk6GJQsqaUBKTNV-1">
          <mxGeometry x="232.5" y="490" width="190" height="110" as="geometry" />
        </mxCell>
        <mxCell id="f7pmLtXpyvA_xlSWCejs-14" value="&lt;b&gt;&lt;font style=&quot;font-size: 18px;&quot;&gt;*&lt;/font&gt;&lt;/b&gt;" style="text;strokeColor=none;align=center;fillColor=none;html=1;verticalAlign=middle;whiteSpace=wrap;rounded=0;" vertex="1" parent="WIyWlLk6GJQsqaUBKTNV-1">
          <mxGeometry x="310" y="280" width="30" height="20" as="geometry" />
        </mxCell>
        <mxCell id="f7pmLtXpyvA_xlSWCejs-18" value="" style="endArrow=classic;startArrow=classic;html=1;rounded=0;exitX=1;exitY=0.5;exitDx=0;exitDy=0;" edge="1" parent="WIyWlLk6GJQsqaUBKTNV-1" source="f7pmLtXpyvA_xlSWCejs-6">
          <mxGeometry width="50" height="50" relative="1" as="geometry">
            <mxPoint x="170" y="170" as="sourcePoint" />
            <mxPoint x="220" y="130" as="targetPoint" />
          </mxGeometry>
        </mxCell>
        <mxCell id="f7pmLtXpyvA_xlSWCejs-23" value="&lt;b&gt;&lt;font style=&quot;font-size: 18px;&quot;&gt;*&lt;/font&gt;&lt;/b&gt;" style="text;strokeColor=none;align=center;fillColor=none;html=1;verticalAlign=middle;whiteSpace=wrap;rounded=0;" vertex="1" parent="WIyWlLk6GJQsqaUBKTNV-1">
          <mxGeometry x="540" y="135" width="30" height="20" as="geometry" />
        </mxCell>
        <mxCell id="f7pmLtXpyvA_xlSWCejs-24" value="" style="endArrow=classic;html=1;rounded=0;exitX=0.356;exitY=1.023;exitDx=0;exitDy=0;exitPerimeter=0;entryX=1;entryY=0.5;entryDx=0;entryDy=0;" edge="1" parent="WIyWlLk6GJQsqaUBKTNV-1" source="f7pmLtXpyvA_xlSWCejs-5" target="f7pmLtXpyvA_xlSWCejs-3">
          <mxGeometry width="50" height="50" relative="1" as="geometry">
            <mxPoint x="590" y="300" as="sourcePoint" />
            <mxPoint x="640" y="250" as="targetPoint" />
            <Array as="points">
              <mxPoint x="641" y="375" />
            </Array>
          </mxGeometry>
        </mxCell>
        <mxCell id="f7pmLtXpyvA_xlSWCejs-25" value="&lt;b&gt;&lt;font style=&quot;font-size: 12px;&quot;&gt;1&lt;/font&gt;&lt;/b&gt;" style="text;strokeColor=none;align=center;fillColor=none;html=1;verticalAlign=middle;whiteSpace=wrap;rounded=0;" vertex="1" parent="WIyWlLk6GJQsqaUBKTNV-1">
          <mxGeometry x="610" y="210" width="30" height="30" as="geometry" />
        </mxCell>
        <mxCell id="f7pmLtXpyvA_xlSWCejs-26" value="&lt;b&gt;&lt;font style=&quot;font-size: 18px;&quot;&gt;*&lt;/font&gt;&lt;/b&gt;" style="text;strokeColor=none;align=center;fillColor=none;html=1;verticalAlign=middle;whiteSpace=wrap;rounded=0;" vertex="1" parent="WIyWlLk6GJQsqaUBKTNV-1">
          <mxGeometry x="437.5" y="360" width="30" height="20" as="geometry" />
        </mxCell>
        <mxCell id="f7pmLtXpyvA_xlSWCejs-27" value="&lt;b&gt;&lt;font style=&quot;font-size: 18px;&quot;&gt;*&lt;/font&gt;&lt;/b&gt;" style="text;strokeColor=none;align=center;fillColor=none;html=1;verticalAlign=middle;whiteSpace=wrap;rounded=0;" vertex="1" parent="WIyWlLk6GJQsqaUBKTNV-1">
          <mxGeometry x="155" y="105" width="30" height="20" as="geometry" />
        </mxCell>
        <mxCell id="f7pmLtXpyvA_xlSWCejs-28" value="&lt;b&gt;&lt;font style=&quot;font-size: 18px;&quot;&gt;*&lt;/font&gt;&lt;/b&gt;" style="text;strokeColor=none;align=center;fillColor=none;html=1;verticalAlign=middle;whiteSpace=wrap;rounded=0;" vertex="1" parent="WIyWlLk6GJQsqaUBKTNV-1">
          <mxGeometry x="190" y="105" width="30" height="20" as="geometry" />
        </mxCell>
        <mxCell id="f7pmLtXpyvA_xlSWCejs-29" value="" style="endArrow=classic;startArrow=classic;html=1;rounded=0;entryX=0.537;entryY=0.997;entryDx=0;entryDy=0;entryPerimeter=0;exitX=0.546;exitY=-0.009;exitDx=0;exitDy=0;exitPerimeter=0;" edge="1" parent="WIyWlLk6GJQsqaUBKTNV-1" source="f7pmLtXpyvA_xlSWCejs-3" target="f7pmLtXpyvA_xlSWCejs-0">
          <mxGeometry width="50" height="50" relative="1" as="geometry">
            <mxPoint x="360" y="295" as="sourcePoint" />
            <mxPoint x="410" y="245" as="targetPoint" />
          </mxGeometry>
        </mxCell>
        <mxCell id="f7pmLtXpyvA_xlSWCejs-30" value="" style="endArrow=classic;startArrow=classic;html=1;rounded=0;exitX=1.007;exitY=0.609;exitDx=0;exitDy=0;exitPerimeter=0;entryX=-0.012;entryY=0.623;entryDx=0;entryDy=0;entryPerimeter=0;" edge="1" parent="WIyWlLk6GJQsqaUBKTNV-1" source="f7pmLtXpyvA_xlSWCejs-0" target="f7pmLtXpyvA_xlSWCejs-5">
          <mxGeometry width="50" height="50" relative="1" as="geometry">
            <mxPoint x="490" y="210" as="sourcePoint" />
            <mxPoint x="540" y="160" as="targetPoint" />
          </mxGeometry>
        </mxCell>
        <mxCell id="f7pmLtXpyvA_xlSWCejs-32" value="&lt;b&gt;&lt;font style=&quot;font-size: 18px;&quot;&gt;*&lt;/font&gt;&lt;/b&gt;" style="text;strokeColor=none;align=center;fillColor=none;html=1;verticalAlign=middle;whiteSpace=wrap;rounded=0;" vertex="1" parent="WIyWlLk6GJQsqaUBKTNV-1">
          <mxGeometry x="450" y="135" width="30" height="20" as="geometry" />
        </mxCell>
        <mxCell id="f7pmLtXpyvA_xlSWCejs-33" value="&lt;b&gt;&lt;font style=&quot;font-size: 18px;&quot;&gt;*&lt;/font&gt;&lt;/b&gt;" style="text;strokeColor=none;align=center;fillColor=none;html=1;verticalAlign=middle;whiteSpace=wrap;rounded=0;" vertex="1" parent="WIyWlLk6GJQsqaUBKTNV-1">
          <mxGeometry x="310" y="220" width="30" height="20" as="geometry" />
        </mxCell>
      </root>
    </mxGraphModel>
  </diagram>
</mxfile>
